<?xml version="1.0" encoding="utf-8"?>
<!-- Generator: Adobe Illustrator 16.0.0, SVG Export Plug-In . SVG Version: 6.00 Build 0)  -->
<!DOCTYPE svg PUBLIC "-//W3C//DTD SVG 1.1//EN" "http://www.w3.org/Graphics/SVG/1.1/DTD/svg11.dtd">
<svg version="1.1" id="Layer_1" xmlns="http://www.w3.org/2000/svg" xmlns:xlink="http://www.w3.org/1999/xlink" x="0px" y="0px"
	 width="375px" height="110px" viewBox="0 0 375 110" enable-background="new 0 0 375 110" xml:space="preserve">
<path opacity="0.5" fill="#1D1D1B" d="M333.442,71.239v-7.39c0-2.67,0.507-4.696,1.519-6.076c0.508-0.691,1.497-1.475,2.97-2.349
	c-0.644-0.736-1.243-1.381-1.796-1.934c-1.795-1.842-2.692-4.258-2.692-7.251V39.68c0-2.302-0.369-3.694-1.105-4.178
	s-2.117-0.726-4.144-0.726h-0.967V26.49h2.348l2.279-0.139h1.174c3.867,0,6.596,0.737,8.184,2.21s2.383,4.006,2.383,7.596v10.221
	c0,1.795,0.253,3.106,0.76,3.936c0.507,0.828,1.427,1.45,2.762,1.865v6.491c-2.348,0.736-3.521,2.463-3.521,5.179v10.98
	c0,3.545-0.795,6.043-2.383,7.493s-4.361,2.175-8.321,2.175c-1.104-0.093-2.232-0.138-3.385-0.138h-2.278v-8.287h0.897
	c2.165,0,3.592-0.277,4.282-0.83C333.097,74.692,333.442,73.356,333.442,71.239z"/>
<path fill="#FFFFFF" d="M332.651,70.466v-7.39c0-2.67,0.507-4.696,1.519-6.077c0.509-0.691,1.498-1.474,2.971-2.349
	c-0.644-0.736-1.243-1.381-1.796-1.933c-1.796-1.842-2.693-4.258-2.693-7.251v-6.561c0-2.302-0.368-3.694-1.104-4.178
	s-2.117-0.725-4.145-0.725h-0.966v-8.288h2.348l2.279-0.138h1.174c3.867,0,6.595,0.737,8.184,2.21
	c1.588,1.474,2.383,4.006,2.383,7.596v10.222c0,1.794,0.253,3.106,0.759,3.936c0.508,0.828,1.428,1.45,2.763,1.865v6.491
	c-2.348,0.736-3.521,2.463-3.521,5.179v10.98c0,3.545-0.795,6.043-2.383,7.494c-1.589,1.45-4.362,2.175-8.321,2.175
	c-1.104-0.093-2.233-0.138-3.385-0.138h-2.278V75.3h0.897c2.165,0,3.591-0.276,4.282-0.829
	C332.307,73.919,332.651,72.583,332.651,70.466z"/>
<g opacity="0.35">
	<path fill="#1D1D1B" d="M151.038,62.986v-4.988h12.397v4.988H151.038z"/>
	<g>
		<path fill="#1D1D1B" d="M76.901,62.962H57.59c0.395,1.482,1.226,2.708,2.495,3.679c1.266,0.972,2.658,1.457,4.172,1.457
			c2.371,0,4.214-1.069,5.532-3.209h6.569c-0.758,2.502-2.265,4.577-4.52,6.222c-2.255,1.646-4.733,2.47-7.433,2.47
			c-3.623,0-6.709-1.284-9.26-3.852c-2.553-2.568-3.828-5.696-3.828-9.383c0-3.721,1.275-6.89,3.828-9.508
			c2.551-2.617,5.637-3.926,9.26-3.926c3.489,0,6.502,1.284,9.038,3.852c2.536,2.568,3.803,5.63,3.803,9.187
			C77.247,60.675,77.131,61.678,76.901,62.962z M57.442,58.171h13.977c-0.428-1.778-1.268-3.186-2.519-4.222
			c-1.252-1.037-2.734-1.556-4.445-1.556c-1.712,0-3.21,0.527-4.495,1.581C58.677,55.027,57.837,56.427,57.442,58.171z"/>
		<path fill="#1D1D1B" d="M102.813,47.899v24.842h-5.482v-3.062c-0.363,0.462-1.021,1.022-1.976,1.68
			c-2.14,1.481-4.362,2.222-6.667,2.222c-3.49,0-6.379-1.267-8.667-3.803c-2.289-2.535-3.433-5.729-3.433-9.581
			c0-3.72,1.185-6.841,3.556-9.359c2.371-2.518,5.316-3.778,8.84-3.778c1.58,0,3.136,0.371,4.667,1.112
			c1.531,0.741,2.757,1.704,3.68,2.889v-3.161H102.813z M89.923,52.542c-2.074,0-3.82,0.758-5.235,2.272
			c-1.416,1.515-2.123,3.391-2.123,5.63c0,2.174,0.716,4.001,2.147,5.482c1.433,1.481,3.169,2.222,5.211,2.222
			c2.074,0,3.803-0.741,5.186-2.222s2.074-3.341,2.074-5.581c0-2.272-0.683-4.141-2.049-5.606S92.029,52.542,89.923,52.542z"/>
		<path fill="#1D1D1B" d="M126.921,81.039l4.593-10.62l-9.088-22.521h6.816l5.63,15.953l5.976-15.953h6.766l-14.273,33.14H126.921z"
			/>
		<path fill="#1D1D1B" d="M173.19,72.741l-9.68-33.089h6.272l5.778,23.113l5.729-23.113h4.445l5.63,23.113l5.828-23.113h6.272
			l-9.63,33.089h-4.889l-5.384-21.879l-5.532,21.879H173.19z"/>
		<path fill="#1D1D1B" d="M222.963,62.962h-19.31c0.394,1.482,1.226,2.708,2.494,3.679c1.266,0.972,2.657,1.457,4.173,1.457
			c2.37,0,4.214-1.069,5.531-3.209h6.569c-0.758,2.502-2.265,4.577-4.52,6.222c-2.256,1.646-4.733,2.47-7.433,2.47
			c-3.622,0-6.71-1.284-9.26-3.852c-2.553-2.568-3.828-5.696-3.828-9.383c0-3.721,1.275-6.89,3.828-9.508
			c2.55-2.617,5.638-3.926,9.26-3.926c3.489,0,6.502,1.284,9.037,3.852c2.536,2.568,3.803,5.63,3.803,9.187
			C223.309,60.675,223.193,61.678,222.963,62.962z M203.505,58.171h13.977c-0.428-1.778-1.268-3.186-2.519-4.222
			c-1.253-1.037-2.733-1.556-4.445-1.556c-1.713,0-3.21,0.527-4.495,1.581C204.739,55.027,203.899,56.427,203.505,58.171z"/>
		<path fill="#1D1D1B" d="M222.998,72.741V39.651h5.976V50.17c1.976-2.074,4.561-3.111,7.754-3.111c3.458,0,6.403,1.292,8.841,3.877
			c2.437,2.585,3.655,5.722,3.655,9.409c0,3.721-1.187,6.857-3.557,9.409c-2.371,2.551-5.302,3.827-8.791,3.827
			c-3.26,0-6.059-1.267-8.396-3.803v2.963H222.998z M235.986,52.542c-2.041,0-3.777,0.741-5.21,2.222s-2.148,3.292-2.148,5.433
			c0,2.239,0.716,4.116,2.148,5.63c1.433,1.515,3.218,2.271,5.358,2.271c2.041,0,3.736-0.741,5.088-2.222
			c1.349-1.481,2.023-3.341,2.023-5.58c0-2.207-0.691-4.051-2.074-5.532S238.062,52.542,235.986,52.542z"/>
		<path fill="#1D1D1B" d="M248.481,72.741V39.651h7.506c4.971,0,8.874,0.839,11.706,2.519c2.237,1.318,4.024,3.26,5.358,5.828
			c1.333,2.568,2,5.333,2,8.297c0,3.128-0.75,6.009-2.248,8.644c-1.498,2.634-3.498,4.576-5.999,5.827
			c-2.636,1.318-6.192,1.976-10.669,1.976H248.481z M254.604,67.012h1.284c3.557,0,6.256-0.542,8.101-1.63
			c1.547-0.92,2.758-2.18,3.631-3.777c0.871-1.597,1.308-3.35,1.308-5.26c0-1.976-0.469-3.811-1.408-5.507
			c-0.938-1.696-2.197-3.004-3.778-3.926c-1.777-1.021-4.429-1.531-7.951-1.531h-1.186V67.012z"/>
		<path fill="#1D1D1B" d="M299.915,62.962h-19.311c0.396,1.482,1.228,2.708,2.494,3.679c1.268,0.972,2.659,1.457,4.173,1.457
			c2.372,0,4.215-1.069,5.532-3.209h6.568c-0.758,2.502-2.265,4.577-4.519,6.222c-2.255,1.646-4.734,2.47-7.434,2.47
			c-3.622,0-6.709-1.284-9.26-3.852c-2.552-2.568-3.828-5.696-3.828-9.383c0-3.721,1.276-6.89,3.828-9.508
			c2.551-2.617,5.638-3.926,9.26-3.926c3.491,0,6.503,1.284,9.038,3.852c2.535,2.568,3.804,5.63,3.804,9.187
			C300.262,60.675,300.146,61.678,299.915,62.962z M280.457,58.171h13.978c-0.43-1.778-1.27-3.186-2.52-4.222
			c-1.253-1.037-2.733-1.556-4.445-1.556s-3.211,0.527-4.494,1.581C281.692,55.027,280.853,56.427,280.457,58.171z"/>
		<path fill="#1D1D1B" d="M306.342,72.741l-10.026-24.842h6.471l6.024,16.496l5.731-16.496h6.518l-10.024,24.842H306.342z"/>
		<path fill="#1D1D1B" d="M123.927,51.524l-4.38,3.958c-2.135-1.602-4.145-2.403-6.029-2.403c-2.136,0-3.203,0.566-3.203,1.696
			c0,0.723,0.863,1.304,2.59,1.742l3.156,0.801c2.983,0.754,5.071,1.656,6.264,2.708c1.193,1.052,1.79,2.521,1.79,4.404
			c0,2.418-1.021,4.403-3.062,5.958c-2.042,1.554-4.663,2.333-7.866,2.333c-4.303,0-8.165-1.633-11.587-4.899l4.474-3.909
			c2.292,2.418,4.632,3.627,7.019,3.627c1.13,0,2.049-0.212,2.755-0.636c0.707-0.424,1.06-0.966,1.06-1.625
			c0-1.004-0.942-1.68-2.826-2.026l-2.025-0.376c-3.141-0.596-5.393-1.437-6.759-2.52c-1.365-1.083-2.048-2.582-2.048-4.498
			c0-2.291,0.934-4.192,2.802-5.699c1.868-1.507,4.231-2.261,7.089-2.261C116.877,47.897,120.472,49.106,123.927,51.524z"/>
	</g>
</g>
<path opacity="0.5" fill="#1D1D1B" d="M39.892,39.196v7.389c0,2.67-0.507,4.696-1.519,6.077c-0.508,0.691-1.498,1.475-2.97,2.349
	c0.644,0.736,1.243,1.38,1.796,1.933c1.796,1.842,2.693,4.259,2.693,7.251v6.562c0,2.301,0.368,3.694,1.104,4.178
	c0.737,0.483,2.117,0.725,4.145,0.725h0.966v8.287H43.76l-2.28,0.138h-1.173c-3.867,0-6.595-0.737-8.184-2.21
	c-1.587-1.473-2.383-4.005-2.383-7.596V64.056c0-1.795-0.253-3.107-0.759-3.937c-0.507-0.828-1.427-1.45-2.763-1.864v-6.491
	c2.349-0.735,3.522-2.462,3.522-5.179v-10.98c0-3.545,0.795-6.043,2.383-7.493c1.589-1.45,4.362-2.175,8.321-2.175
	c1.104,0.093,2.233,0.137,3.384,0.137h2.278v8.287H45.21c-2.166,0-3.591,0.277-4.282,0.83
	C40.237,35.743,39.892,37.079,39.892,39.196z"/>
<path fill="#FFFFFF" d="M39.177,38.734v7.332c0,2.65-0.502,4.66-1.507,6.03c-0.503,0.685-1.485,1.462-2.947,2.33
	c0.639,0.73,1.234,1.37,1.782,1.918c1.782,1.827,2.672,4.225,2.672,7.194v6.51c0,2.283,0.366,3.665,1.097,4.146
	c0.73,0.479,2.1,0.719,4.111,0.719h0.959v8.223h-2.33l-2.262,0.137h-1.165c-3.838,0-6.544-0.732-8.12-2.193
	c-1.576-1.462-2.364-3.975-2.364-7.537V63.402c0-1.781-0.251-3.083-0.754-3.906c-0.502-0.822-1.416-1.439-2.741-1.85v-6.441
	c2.331-0.73,3.495-2.444,3.495-5.14V35.171c0-3.517,0.788-5.996,2.364-7.435c1.576-1.438,4.328-2.158,8.257-2.158
	c1.096,0.092,2.215,0.136,3.357,0.136h2.262v8.223h-0.891c-2.148,0-3.564,0.274-4.249,0.823
	C39.521,35.308,39.177,36.634,39.177,38.734z"/>
<g>
	<path fill="#FFFFFF" d="M150.003,61.951v-4.988H162.4v4.988H150.003z"/>
	<g>
		<path fill="#FFFFFF" d="M75.866,61.928H56.555c0.396,1.481,1.227,2.708,2.495,3.679c1.267,0.972,2.658,1.457,4.173,1.457
			c2.371,0,4.214-1.069,5.532-3.209h6.568c-0.758,2.502-2.265,4.577-4.519,6.222c-2.256,1.646-4.734,2.47-7.433,2.47
			c-3.623,0-6.709-1.285-9.26-3.853c-2.553-2.568-3.828-5.695-3.828-9.383c0-3.721,1.275-6.891,3.828-9.508
			c2.551-2.617,5.637-3.926,9.26-3.926c3.49,0,6.502,1.284,9.038,3.852c2.536,2.568,3.803,5.63,3.803,9.187
			C76.212,59.64,76.096,60.643,75.866,61.928z M56.407,57.137h13.978c-0.429-1.778-1.269-3.186-2.52-4.222
			c-1.252-1.037-2.733-1.557-4.445-1.557c-1.712,0-3.21,0.528-4.495,1.581C57.642,53.993,56.803,55.392,56.407,57.137z"/>
		<path fill="#FFFFFF" d="M101.778,46.864v24.842h-5.482v-3.062c-0.363,0.462-1.021,1.021-1.976,1.68
			c-2.141,1.481-4.363,2.222-6.667,2.222c-3.49,0-6.379-1.267-8.667-3.803c-2.289-2.535-3.433-5.729-3.433-9.582
			c0-3.72,1.186-6.84,3.556-9.359c2.371-2.519,5.317-3.778,8.841-3.778c1.58,0,3.136,0.371,4.667,1.111
			c1.531,0.741,2.758,1.704,3.68,2.889v-3.161H101.778z M88.888,51.507c-2.074,0-3.82,0.758-5.235,2.271
			c-1.416,1.515-2.124,3.392-2.124,5.63c0,2.174,0.716,4.001,2.147,5.482c1.433,1.481,3.169,2.223,5.211,2.223
			c2.074,0,3.803-0.741,5.186-2.223c1.382-1.481,2.074-3.341,2.074-5.58c0-2.272-0.683-4.141-2.049-5.606
			C92.731,52.239,90.995,51.507,88.888,51.507z"/>
		<path fill="#FFFFFF" d="M125.886,80.004l4.593-10.619l-9.088-22.521h6.816l5.63,15.953l5.976-15.953h6.766l-14.273,33.14H125.886z
			"/>
		<path fill="#FFFFFF" d="M172.155,71.706l-9.68-33.089h6.272l5.778,23.113l5.729-23.113h4.445l5.63,23.113l5.827-23.113h6.273
			l-9.631,33.089h-4.889l-5.383-21.879l-5.532,21.879H172.155z"/>
		<path fill="#FFFFFF" d="M221.929,61.928h-19.311c0.395,1.481,1.226,2.708,2.494,3.679c1.267,0.972,2.658,1.457,4.173,1.457
			c2.371,0,4.214-1.069,5.532-3.209h6.568c-0.758,2.502-2.265,4.577-4.52,6.222c-2.256,1.646-4.733,2.47-7.433,2.47
			c-3.622,0-6.709-1.285-9.26-3.853c-2.553-2.568-3.828-5.695-3.828-9.383c0-3.721,1.275-6.891,3.828-9.508
			c2.551-2.617,5.638-3.926,9.26-3.926c3.489,0,6.502,1.284,9.038,3.852c2.535,2.568,3.803,5.63,3.803,9.187
			C222.274,59.64,222.159,60.643,221.929,61.928z M202.47,57.137h13.978c-0.429-1.778-1.269-3.186-2.52-4.222
			c-1.252-1.037-2.732-1.557-4.444-1.557c-1.713,0-3.211,0.528-4.495,1.581C203.705,53.993,202.865,55.392,202.47,57.137z"/>
		<path fill="#FFFFFF" d="M221.963,71.706V38.617h5.976v10.519c1.976-2.074,4.561-3.111,7.754-3.111
			c3.458,0,6.403,1.292,8.841,3.877c2.437,2.585,3.655,5.721,3.655,9.409c0,3.721-1.187,6.856-3.557,9.408s-5.301,3.827-8.791,3.827
			c-3.26,0-6.059-1.267-8.396-3.803v2.963H221.963z M234.952,51.507c-2.042,0-3.778,0.741-5.211,2.222
			c-1.432,1.481-2.148,3.292-2.148,5.433c0,2.24,0.717,4.116,2.148,5.63c1.433,1.515,3.218,2.272,5.359,2.272
			c2.04,0,3.736-0.741,5.087-2.222c1.35-1.481,2.023-3.341,2.023-5.581c0-2.206-0.691-4.05-2.074-5.532
			C238.755,52.248,237.026,51.507,234.952,51.507z"/>
		<path fill="#FFFFFF" d="M247.446,71.706V38.617h7.506c4.971,0,8.874,0.839,11.707,2.518c2.237,1.318,4.023,3.26,5.357,5.828
			c1.333,2.568,2,5.334,2,8.297c0,3.129-0.75,6.009-2.247,8.644c-1.499,2.635-3.499,4.576-6,5.827
			c-2.636,1.318-6.191,1.976-10.669,1.976H247.446z M253.569,65.977h1.285c3.556,0,6.255-0.542,8.1-1.63
			c1.547-0.921,2.758-2.18,3.631-3.778c0.871-1.597,1.308-3.35,1.308-5.26c0-1.976-0.469-3.811-1.407-5.507
			c-0.939-1.696-2.198-3.004-3.779-3.926c-1.777-1.02-4.428-1.531-7.951-1.531h-1.186V65.977z"/>
		<path fill="#FFFFFF" d="M298.88,61.928h-19.31c0.396,1.481,1.227,2.708,2.494,3.679c1.267,0.972,2.658,1.457,4.172,1.457
			c2.372,0,4.216-1.069,5.532-3.209h6.569c-0.759,2.502-2.266,4.577-4.519,6.222c-2.256,1.646-4.734,2.47-7.434,2.47
			c-3.622,0-6.71-1.285-9.261-3.853c-2.552-2.568-3.828-5.695-3.828-9.383c0-3.721,1.276-6.891,3.828-9.508
			c2.551-2.617,5.639-3.926,9.261-3.926c3.49,0,6.503,1.284,9.037,3.852c2.536,2.568,3.804,5.63,3.804,9.187
			C299.227,59.64,299.11,60.643,298.88,61.928z M279.423,57.137h13.977c-0.429-1.778-1.269-3.186-2.519-4.222
			c-1.254-1.037-2.734-1.557-4.446-1.557s-3.21,0.528-4.494,1.581C280.657,53.993,279.817,55.392,279.423,57.137z"/>
		<path fill="#FFFFFF" d="M305.307,71.706l-10.025-24.842h6.471l6.023,16.496l5.731-16.496h6.519L310,71.706H305.307z"/>
		<path fill="#FFFFFF" d="M122.892,50.489l-4.38,3.958c-2.135-1.602-4.145-2.403-6.029-2.403c-2.135,0-3.203,0.566-3.203,1.696
			c0,0.723,0.863,1.304,2.59,1.743l3.156,0.801c2.982,0.754,5.071,1.656,6.264,2.708c1.194,1.052,1.791,2.52,1.791,4.404
			c0,2.418-1.021,4.403-3.062,5.958c-2.042,1.554-4.664,2.333-7.866,2.333c-4.302,0-8.165-1.633-11.586-4.899l4.474-3.909
			c2.292,2.418,4.631,3.627,7.019,3.627c1.13,0,2.048-0.212,2.755-0.635c0.707-0.425,1.06-0.966,1.06-1.625
			c0-1.005-0.942-1.68-2.826-2.026l-2.025-0.376c-3.14-0.596-5.393-1.437-6.759-2.521c-1.366-1.083-2.049-2.582-2.049-4.498
			c0-2.291,0.934-4.192,2.803-5.699c1.867-1.507,4.23-2.261,7.089-2.261C115.843,46.862,119.438,48.072,122.892,50.489z"/>
	</g>
</g>
</svg>
